<?xml version="1.0" encoding="UTF-8" standalone="no"?>
<!DOCTYPE svg PUBLIC "-//W3C//DTD SVG 1.1//EN" "http://www.w3.org/Graphics/SVG/1.1/DTD/svg11.dtd">
<svg width="100%" height="100%" viewBox="0 0 1024 1024" version="1.1" xmlns="http://www.w3.org/2000/svg" xmlns:xlink="http://www.w3.org/1999/xlink" xml:space="preserve" xmlns:serif="http://www.serif.com/" style="fill-rule:evenodd;clip-rule:evenodd;stroke-linejoin:round;stroke-miterlimit:2;">
    <g id="Background">
        <path d="M968.11,927.434C967.452,930.548 964.643,953.083 939.441,963.349C929.719,967.31 929.389,966.652 807.5,966.707C751.02,966.733 107.287,967.025 101.495,966.598C96.968,966.263 65.709,963.954 57.769,930.44C55.874,922.443 56.904,922.292 56.747,549.5C56.732,513.421 56.563,110.225 56.805,98.508C57.332,73.076 78.319,55.076 98.492,54.311C124.326,53.331 844.619,54.084 909.499,54.152C918.41,54.161 956.006,49.091 967.143,87.594C969.44,95.537 968.612,95.763 968.719,521.5C968.727,553.5 968.818,918.334 968.653,921.505C968.628,921.981 968.613,921.944 968.11,927.434Z" style="fill:rgb(1,2,1);"/>
        <path d="M580.841,529.337C579.163,527.801 579.081,528 577.14,526.898C577.186,526.669 579.092,526.34 577.647,524.386C572.603,517.563 565.329,513.397 561.936,511.141C561.721,511.02 523.446,482.984 472.692,502.996C443.235,514.61 435.431,531.946 433.763,535.653C433.461,535.965 432.771,535.188 432.469,535.5C432.172,535.808 426.975,545.163 426.763,545.621C417.645,565.305 420.116,584.831 420.134,585.484C420.934,591.863 420.728,591.827 423.05,598.638C424.057,601.59 423.625,601.645 422.344,604.429C397.842,657.685 396.972,660.484 381.132,718.338C380.706,719.895 379.584,719.718 362.686,710.167C353.61,705.036 356.401,702.699 351.729,693.382C336.81,663.634 317.715,658.163 321.545,656.556C325.217,655.016 345.448,646.529 360.354,625.398C399.128,570.432 397.093,515.287 386.157,463.572C379.54,432.276 360.184,378.38 353.067,361.685C348.574,351.142 341.86,359.71 337.199,363.063C274.926,407.856 202.458,408.639 197.393,406.762C195.051,405.894 189.973,382.042 187.234,378.717C181.896,372.237 155.053,392.696 153.713,400.54C152.69,406.527 160.713,452.369 161.939,458.419C167.37,485.212 180.215,542.144 203.64,578.412C222.624,607.802 229.721,606.286 226.033,612.196C213.485,632.301 218.09,633.892 215.043,653.401C211.536,654.609 207.991,658.897 207.496,659.495C207.226,659.882 206.883,660.214 206.612,660.601C199.241,671.144 206.293,720.078 258.765,755.095C279.434,768.889 283.35,763.68 299.439,782.553C325.306,812.892 356.663,877.245 407.372,856.202C411.856,854.341 413.583,855.771 418.499,855.48C446.435,853.826 453.24,825.324 454.806,823.872C464.746,814.651 487.08,757.448 489.415,751.468C497.92,729.682 497.092,727.431 498.502,727.471C501.169,727.546 511.756,780.844 551.869,815.064C557.844,820.161 557.574,820.704 557.848,828.494C557.994,832.644 556.327,831.783 552.73,833.876C537.018,843.021 542.755,861.938 542.086,863.266C541.842,863.751 512.372,866.605 514.908,895.46C515.263,899.499 514.158,899.597 510.519,899.779C495.761,900.518 482.009,918.732 478.646,938.524C478.084,941.837 473.376,940.925 468.5,940.926C440.018,940.935 118.817,941.031 112.478,940.883C100.308,940.598 83.638,930.148 82.143,910.518C81.944,907.899 82.025,117.312 82.102,112.481C82.357,96.528 94.639,81.216 114.5,81.097C115.154,81.093 907.252,81.078 910.503,81.1C924.09,81.196 938.532,89.782 941.661,108.478C942.845,115.546 942.007,629.218 941.933,674.5C941.891,700.085 942.67,721.134 940.636,710.422C934.492,678.083 905.896,603.005 900.321,593.587C909.222,570.475 909.291,549.123 892.951,519.363C891.263,516.854 891.431,516.797 889.323,514.655C841.169,465.713 772.438,481.868 749.797,502.825C730.238,520.929 717.261,586.586 747.706,601.19C745.683,602.447 745.727,602.538 745.521,602.548C739.786,602.818 739.877,601.937 734.18,601.889C733.998,601.664 731.904,599.068 731.904,599.068C728.738,592.768 729.747,600.115 729.774,600.527C707.491,620.627 705.497,663.694 689.397,688.185C688.989,688.807 688.362,689.301 688.087,689.993C688.006,690.198 688.544,690.332 688.463,690.537C655.64,650.432 664.347,623.341 625.242,599.941C584.368,575.481 500.303,589.869 496.152,677.429C496.143,677.607 494.522,681.256 494.012,676.794C492.431,662.96 490.925,661.823 490.473,641.5C494.236,637.068 491.462,635.301 495.356,623.45C510.367,577.774 527.173,573.111 527.011,568.653C526.924,566.274 525.647,568.465 516.046,576.033C513.906,577.72 500.576,588.227 494.931,602.759C493.293,606.975 493.57,607.018 493.42,607.376C493.42,607.376 491.28,608.403 491.094,608.492C494.836,578.566 507.709,525.545 571.457,529.954C577.456,530.369 578.483,532.162 580.841,529.337Z" style="fill:rgb(249,250,245);"/>
        <path d="M495.07,436.819C504.558,455.889 510.602,449.939 529.73,466.212C589.267,516.86 653.861,499.504 664.538,496.635C682.727,491.748 713.489,477.683 717.639,475.785C737.726,466.601 737.989,467.514 759.505,462.526C759.849,462.438 776.165,458.235 763.732,463.879C749.62,470.284 723.927,487.433 698.552,496.64C695.011,497.924 693.269,496.749 693.323,500.495C693.41,506.531 693.733,506.469 693.954,521.459C693.397,527.742 692.551,529.822 674.663,537.859C643.702,551.77 585.927,551.244 595.384,532.441C596.023,531.171 595.788,531.142 596.254,526.459C597.557,513.374 599.059,508.996 595.608,508.123C580.678,504.347 559.873,500.945 524.138,472.958C514.937,465.752 514.714,466.165 504.683,460.206C463.099,435.503 458.155,321.967 505.761,291.901C514.384,286.456 515.532,287.858 521.955,279.853C525.77,275.097 546.375,249.416 582.515,233.578C589.653,230.45 566.995,248.858 579.868,261.115C588.203,269.05 624.493,270.472 650.118,250.013C656.882,244.614 670.487,231.996 690.497,230.956C691.379,230.91 735.005,242.275 757.595,279.479C764.114,290.216 734.487,251.773 699.715,298.659C682.167,322.32 669.894,352.256 578.496,350.768C526.969,349.928 519.066,332.131 516.926,327.313C507.498,306.079 520.914,292.174 512.422,298.371C511.107,299.331 494.836,305.654 485.268,340.44C480.761,356.823 474.666,399.006 495.07,436.819Z" style="fill:rgb(1,1,1);"/>
        <path d="M893.924,600.342C902.09,620.662 924.82,676.569 941.398,748.524C942.101,751.573 942.525,780.581 941.164,782.225C934.835,789.875 898.817,811.795 874.507,809.41C862.636,808.246 782.557,625.547 784.964,621.83C787.95,617.22 800.624,620.008 817.964,582.721C821.841,574.385 834.561,538.302 859.448,546.642C874.48,551.679 892.029,595.601 893.924,600.342Z" style="fill:rgb(210,210,208);"/>
        <path d="M242.566,412.913C263.531,409.265 311.58,394.864 343.704,369.783C346.368,367.704 347.17,372.433 352.418,385.532C353.406,387.997 373.643,443.527 379.474,477.504C387.717,525.542 386.656,574.465 350.023,623.152C338.272,638.77 315.626,651.291 316.588,646.503C316.915,644.876 323.875,631.622 311.212,622.959C294.604,611.597 281.61,637.025 279.598,637.704C277.545,638.396 259.274,626.834 259.957,624.63C260.358,623.337 261.495,623.91 267.4,609.432C269.223,604.963 274.553,617.798 301.416,611.146C339.029,599.241 345.689,545.219 340.308,540.724C333.092,534.696 326.229,561.529 282.461,571.324C279.24,568.536 280.719,567.753 276.437,554.173C278.006,553.531 292.385,547.644 293.41,541.492C294.053,537.633 290.107,541.566 273.43,546.264C272.468,544.691 272.862,544.623 272.667,542.496C269.176,504.408 245.912,425.424 244.425,415.523C244.023,412.841 243.021,413.551 242.566,412.913Z" style="fill:rgb(214,214,212);"/>
        <path d="M729.774,600.527C734.364,668.564 776.104,679.44 794.614,671.782C799.188,669.89 800.036,667.53 801.357,670.518C801.843,671.616 794.538,707.404 780.146,737.34C758.271,782.844 741.832,788.126 739.894,797.587C736.657,813.389 736.205,827.942 732.482,828.34C694.743,832.373 677.014,846.73 662.642,850.665C662.778,847.337 662.984,847.46 664.099,844.358C671.946,822.538 662.273,823.089 652.603,821.03C592.58,808.256 585.028,812.963 566.36,818.502C563,807.175 555.938,811.295 539.008,787.892C523.584,766.571 525.837,765.089 526.174,759.485C526.922,758.758 527.126,759.187 527.833,758.5C528.846,757.515 528.396,757.274 528.5,757.224C529.453,756.761 540.255,777.981 573.543,782.069C619.011,787.654 639.422,754.432 642.745,751.383C671.803,792.168 730.01,788.027 743.228,747.411C748.939,729.86 735.173,721.182 733.193,719.934C716.247,709.252 708.827,711.138 688.463,690.537C688.544,690.332 688.006,690.198 688.087,689.993C688.362,689.301 688.989,688.807 689.397,688.185C705.497,663.694 707.491,620.627 729.774,600.527Z" style="fill:rgb(167,169,169);"/>
        <path d="M843.5,940.882C837.13,940.783 836.285,942.197 835.173,939.671C833.195,935.18 833.08,921.998 818.219,911.949C811.149,907.169 800.366,909.987 799.92,906.459C797.019,883.521 791.544,867.295 758.562,862.018C753.724,861.244 763.965,843.224 749.185,831.924C747.365,830.533 743.368,829.721 743.886,826.563C748.377,799.176 749.031,798.48 750.71,796.695C802.838,741.28 802.043,687.338 806.234,697.646C828.457,752.298 846.795,784.959 862.859,811.287C864.545,814.052 866.639,815.373 865.688,817.577C850.716,852.311 867.102,877.303 864.007,895.428C860.516,915.874 851.083,940.36 849.59,940.783C849.121,940.916 849.14,940.79 843.5,940.882Z" style="fill:rgb(251,252,247);"/>
        <path d="M642.745,751.383C639.422,754.432 619.011,787.654 573.543,782.069C540.255,777.981 529.453,756.761 528.5,757.224C528.396,757.274 528.846,757.515 527.833,758.5C527.126,759.187 526.922,758.758 526.174,759.485C528.091,709.621 513.971,648.53 564.409,637.099C570.039,635.823 602.356,631.885 616.213,667.608C628.535,699.374 623.128,717.158 642.745,751.383Z" style="fill:rgb(254,254,254);"/>
        <path d="M242.566,412.913C243.021,413.551 244.023,412.841 244.425,415.523C245.912,425.424 269.176,504.408 272.667,542.496C272.862,544.623 272.468,544.691 273.43,546.264C265.933,547.509 265.909,547.003 258.565,545.233C248.401,542.784 257.329,558.239 276.437,554.173C280.719,567.753 279.24,568.536 282.461,571.324C244.39,576.123 239.527,561.507 232.846,565.97C226.882,569.954 244.954,587.748 244.632,589.539C244.415,590.744 240.97,591.308 235.944,597.858C234.778,599.377 234.034,602.763 229.976,598.053C223.002,589.958 189.653,557.596 169.158,446.567C168.646,443.789 162.918,412.761 164.54,411.554C167.13,409.627 182.46,422.669 242.566,412.913Z" style="fill:rgb(254,254,253);"/>
        <path d="M844.094,747.758C834.022,731.085 834.315,730.977 833.43,729.539C831.964,727.157 818.197,694.618 817.788,693.403C809.526,668.812 798.109,643.791 812.765,611.608C829.213,575.49 845.241,594.27 855.439,605.559C893.397,647.58 919.341,752.697 886.296,769.102C864.334,780.004 844.911,748.855 844.094,747.758Z" style="fill:rgb(254,254,254);"/>
        <path d="M892.951,519.363C892.409,519.369 892.061,520.128 891.519,520.134C890.301,520.147 880.262,501.679 849.598,509.865C819.496,517.9 804.174,551.85 801.976,556.721C791.891,579.066 791.389,584.109 779.505,595.505C773.035,601.708 759.884,606.783 747.706,601.19C717.261,586.586 730.238,520.929 749.797,502.825C772.438,481.868 841.169,465.713 889.323,514.655C891.431,516.797 891.263,516.854 892.951,519.363Z" style="fill:rgb(1,1,1);"/>
        <path d="M470.597,648.445C464.701,657.879 473.444,670.245 449.829,717.684C435.197,747.079 426.042,746.758 421.086,754.985C406.906,734.674 390.731,726.534 389.634,725.379C387.523,723.159 402.274,678.492 404.757,670.58C408.881,657.437 427.359,612.759 428.828,611.966C430.666,610.974 430.417,612.324 432.563,614.429C446.804,628.399 458.147,620.692 459.69,625.436C463.439,636.965 464.473,638.271 470.597,648.445Z" style="fill:rgb(210,210,208);"/>
        <path d="M215.043,653.401C215.573,660.67 208.678,668.568 247.727,692.112C256.078,697.147 272.195,704.767 274.36,705.791C302.945,719.306 329.006,710.134 320.187,680.597C316.701,668.92 304.831,662.706 308.638,661.971C308.857,661.929 333.101,670.722 346.567,704.475C347.352,706.442 356.021,722.503 348.064,742.321C345.666,748.292 341.436,753.02 340.707,753.835C335.544,758.866 327.967,767.978 305.49,766.83C297.637,766.429 299.369,763.225 286.978,749.065C262.682,721.298 212.196,700.216 207.517,679.496C204.809,667.503 208.611,662.11 208.348,660.885C208.234,660.354 207.611,660.026 207.496,659.495C207.991,658.897 211.536,654.609 215.043,653.401Z" style="fill:rgb(199,201,200);"/>
        <path d="M561.936,511.141C561.338,511.422 561.099,512.226 560.501,512.507C560.292,512.605 556.275,510.81 554.492,510.734C497.551,508.313 479.624,567.15 475.729,575.606C464.403,600.201 445.664,601.086 439.655,598.139C413.749,585.431 431.458,541.986 433.763,535.653C435.431,531.946 443.235,514.61 472.692,502.996C523.446,482.984 561.721,511.02 561.936,511.141Z" style="fill:rgb(1,1,1);"/>
        <path d="M748.096,845.552C727.04,840.355 637.639,866.645 628.206,919.437C626.485,929.07 627.165,929.163 627.601,940.825C624.873,940.88 617.874,941.021 593.495,940.913C590.908,940.902 590.516,940.44 581.279,921.607C570.036,898.683 568.956,899.335 558.808,880.34C541.333,847.632 558.164,837.56 559.763,843.413C560.27,845.267 563.326,856.452 571.783,864.203C603.774,893.527 656.783,863.69 660.657,861.811C738.314,824.13 745.14,839.079 748.096,845.552Z" style="fill:rgb(253,253,253);"/>
        <path d="M347.033,759.307C349.009,761.977 349.267,761.738 377.475,787.528C405.909,813.524 425.208,813.553 425.998,813.78C426.102,826.313 401.465,881.231 348.509,830.49C335.061,817.605 317.13,787.755 306.361,776.571C302.421,772.48 317.772,779.281 336.245,768.065C342.202,764.449 341.768,763.959 347.033,759.307Z" style="fill:rgb(150,153,153);"/>
        <path d="M748.51,321.508C751.094,320.142 751.21,320.498 753.745,318.961C780.146,302.954 800.508,367.846 783.66,409.568C770.348,442.535 753.224,430.697 748.379,429.612C726.194,403.343 728.577,345.772 748.51,321.508Z" style="fill:rgb(1,1,1);"/>
        <path d="M470.597,648.445C475.751,654.823 475.523,654.918 481.167,660.805C483.344,663.075 483.588,666.961 483.679,667.464C488.528,694.45 490.308,693.932 493.54,708.493C495.026,715.19 466.082,786.947 457.015,803.245C454.628,807.536 453.054,812.202 451.398,807.538C450.943,806.255 448.656,799.816 441.094,793.987C438.416,791.923 438.311,792.241 435.694,790.251C432.271,787.649 436.498,779.727 421.086,754.985C426.042,746.758 435.197,747.079 449.829,717.684C473.444,670.245 464.701,657.879 470.597,648.445Z" style="fill:rgb(151,154,153);"/>
        <path d="M566.36,818.502C585.028,812.963 592.58,808.256 652.603,821.03C662.273,823.089 671.946,822.538 664.099,844.358C662.984,847.46 662.778,847.337 662.642,850.665C654.867,855.637 634.403,863.914 624.424,866.156C619.541,867.253 588.53,875.668 571.9,850.239C565.078,839.808 567.957,831.998 566.36,818.502Z" style="fill:rgb(254,254,254);"/>
        <path d="M347.033,759.307C369.151,729.969 353.624,716.747 360.534,719.354C360.944,719.509 380.694,730.612 382.444,731.596C419.321,752.329 431.192,790.38 425.998,813.78C425.208,813.553 405.909,813.524 377.475,787.528C349.267,761.738 349.009,761.977 347.033,759.307Z" style="fill:rgb(254,254,254);"/>
        <path d="M748.096,845.552C748.447,848.324 749.172,849.64 747.665,858.529C746.853,863.322 744.765,861.374 734.444,863.212C698.158,869.672 662.451,899.73 648.769,938.613C647.647,941.801 643.937,940.911 627.601,940.825C627.165,929.163 626.485,929.07 628.206,919.437C637.639,866.645 727.04,840.355 748.096,845.552Z" style="fill:rgb(150,153,152);"/>
        <path d="M892.951,519.363C909.291,549.123 909.222,570.475 900.321,593.587C898.143,589.887 894.914,585.839 895.724,580.543C904.706,521.828 868.599,516.445 852.666,522.955C822.879,535.124 813.6,563.252 807.583,577.534C786.572,627.416 745.44,621.224 734.18,601.889C739.877,601.937 739.786,602.818 745.521,602.548C745.727,602.538 745.683,602.447 747.706,601.19C759.884,606.783 773.035,601.708 779.505,595.505C791.389,584.109 791.891,579.066 801.976,556.721C804.174,551.85 819.496,517.9 849.598,509.865C880.262,501.679 890.301,520.147 891.519,520.134C892.061,520.128 892.409,519.369 892.951,519.363Z" style="fill:rgb(168,168,167);"/>
        <path d="M941.894,799.535C941.682,799.612 939.244,800.5 939.244,800.5C938.329,803.932 939.724,804.08 938.596,807.521C936.237,814.715 938.412,819.871 928.095,864.413C926.579,870.961 927.312,871.034 925.463,877.855C894.737,872.123 881.294,881.058 874.554,882.875C872.705,883.373 871.984,882.362 869.213,859.537C867.209,843.03 870.92,827.981 870.967,827.974C871.216,827.938 871.251,828.545 871.5,828.509L872.331,828.634C872.698,829.659 875.498,837.487 881.447,838.739C909.717,844.689 919.219,807.943 939.431,795.372C942.622,793.387 942.083,796.476 941.894,799.535Z" style="fill:rgb(254,254,254);"/>
        <path d="M926.389,885.893C925.454,886.618 923.788,886.564 924.999,888.36C925.692,889.387 923.519,920.41 921.038,929.359C918.643,938.001 918.612,938.902 918.582,939.756C905.506,942.26 879.04,940.323 863.501,940.924C858.039,941.135 862.096,937.818 867.995,917.643C874.626,894.966 870.871,892.074 877.56,889.652C896.234,882.888 907.068,881.579 926.389,885.893Z" style="fill:rgb(254,254,254);"/>
        <path d="M774.809,876.094C770.623,878.532 770.274,875.855 765.496,876.437C736.286,879.99 734.383,905.24 730.687,918.795C729.621,920.027 728.785,920.088 729.941,927.438C731.309,936.131 736.144,940.822 732.594,940.937C730.514,941.004 709.644,941.678 706.576,941.02C703.803,940.425 711.217,926.447 705.343,921.724C703.728,920.425 680.652,921.893 685.302,904.444C689.891,887.224 740.319,858.468 774.809,876.094Z" style="fill:rgb(253,253,253);"/>
        <path d="M561.936,511.141C565.329,513.397 572.603,517.563 577.647,524.386C579.092,526.34 577.186,526.669 577.14,526.898C573.809,525.097 550.785,508.461 518.851,531.924C487.762,554.766 492.32,596.871 458.532,610.577C442.24,617.186 424.84,605.911 422.938,590.038C422.756,588.519 423.348,586.767 422.545,585.463C422.124,584.779 420.556,586.168 420.134,585.484C420.116,584.831 417.645,565.305 426.763,545.621C426.975,545.163 432.172,535.808 432.469,535.5C432.771,535.188 433.461,535.965 433.763,535.653C431.458,541.986 413.749,585.431 439.655,598.139C445.664,601.086 464.403,600.201 475.729,575.606C479.624,567.15 497.551,508.313 554.492,510.734C556.275,510.81 560.292,512.605 560.501,512.507C561.099,512.226 561.338,511.422 561.936,511.141Z" style="fill:rgb(138,139,138);"/>
        <path d="M748.51,321.508C750.496,314.581 759.819,309.329 760.696,308.946C793.36,294.689 813.293,360.751 799.715,406.563C784.131,459.145 750.826,442.002 748.379,429.612C753.224,430.697 770.348,442.535 783.66,409.568C800.508,367.846 780.146,302.954 753.745,318.961C751.21,320.498 751.094,320.142 748.51,321.508Z" style="fill:rgb(112,113,112);"/>
        <path d="M596.039,688.459C589.537,727.904 546.522,719.65 546.943,681.518C547.217,656.683 581.852,642.124 593.463,671.515C596.647,679.573 595.882,679.748 596.039,688.459Z" style="fill:rgb(1,1,1);"/>
        <path d="M646.508,221.15C649.153,221.363 667.691,222.855 679.33,225.887C687.666,228.059 673.976,224.203 654.84,237.985C652.784,239.466 627.007,264.229 592.476,258.626C572.664,255.411 585.99,231.972 606.516,225.55C623.46,220.249 643.169,221.126 646.508,221.15Z" style="fill:rgb(1,2,1);"/>
        <path d="M520.501,940.859C519.468,940.794 512.475,942.821 516.528,935.517C520.035,929.197 531.544,927.082 527.058,909.62C525.823,904.813 517.143,881.85 535.495,874.486C536.701,874.002 545.251,871.657 546.182,873.701C554.164,891.218 555.246,890.56 564.309,907.599C573.339,924.578 551.044,912.212 546.894,920.697C543.382,927.878 548.543,938.343 548.452,939.495C548.319,941.171 547.401,940.886 520.501,940.859Z" style="fill:rgb(253,253,253);"/>
        <path d="M329.441,481.104C295.702,487.572 282.786,507.934 284.652,491.521C287.225,468.887 316.541,452.86 338.32,469.728C345.694,475.439 345.221,479.909 340.482,480.094C334.853,480.313 334.973,480.439 329.441,481.104Z" style="fill:rgb(2,2,1);"/>
        <path d="M774.809,876.094C785.069,882.764 787.128,888.29 790.634,901.495C790.685,901.684 790.674,905.998 788.203,901.789C778.509,885.276 754.621,885.32 742.741,910.608C740.421,915.545 740.396,918.947 730.687,918.795C734.383,905.24 736.286,879.99 765.496,876.437C770.274,875.855 770.623,878.532 774.809,876.094Z" style="fill:rgb(154,156,155);"/>
        <path d="M220.524,503.935C210.218,505.123 210.342,505.305 200.431,508.224C186.931,512.2 205.459,469.472 235.341,487.756C246.329,494.48 252.992,508.275 242.532,506.321C230.845,504.138 230.897,504.268 220.524,503.935Z" style="fill:rgb(2,2,2);"/>
        <path d="M926.389,885.893C938.335,889.369 942,889.276 941.938,896.502C941.838,908.263 945.117,931.103 918.582,939.756C918.612,938.902 918.643,938.001 921.038,929.359C923.519,920.41 925.692,889.387 924.999,888.36C923.788,886.564 925.454,886.618 926.389,885.893Z" style="fill:rgb(207,207,205);"/>
        <path d="M941.894,799.535C941.906,819.19 941.918,838.845 941.929,858.5C941.951,880.98 942.784,883.874 939.5,882.499C931.367,879.091 931.334,879.392 925.463,877.855C927.312,871.034 926.579,870.961 928.095,864.413C938.412,819.871 936.237,814.715 938.596,807.521C939.724,804.08 938.329,803.932 939.244,800.5C939.244,800.5 941.682,799.612 941.894,799.535Z" style="fill:rgb(205,205,203);"/>
        <path d="M655.858,387.506C651.848,416.615 617.497,398.468 630.548,376.531C634.803,369.379 654.385,363.72 655.858,387.506Z" style="fill:rgb(2,2,2);"/>
        <path d="M327.448,442.888C289.916,439.083 286.701,463.428 277.573,459.319C263.354,452.918 309.521,417.082 338.974,443.19C342.992,446.751 335.753,444.701 327.448,442.888Z" style="fill:rgb(4,4,3);"/>
        <path d="M547.08,388.468C544.132,414.239 516.133,399.678 526.268,378.386C531.524,367.343 546.28,369.587 547.12,385.512C547.172,386.496 547.028,387.484 547.08,388.468Z" style="fill:rgb(2,2,2);"/>
        <path d="M242.284,637.992C244.472,639.305 245.166,638.942 245.407,641.509C246.091,648.803 245.92,657.159 245.892,658.52C245.71,667.438 235.604,672.077 226.412,664.58C229.255,657.043 225.185,637.457 230.503,638.489C233.059,638.985 232.921,639.146 235.488,639.685C239.112,640.445 238.983,639.5 242.284,637.992Z" style="fill:rgb(200,200,198);"/>
        <path d="M208.555,455.931C208.906,455.92 218.608,454.608 228.355,458.845C230.625,459.831 237.279,462.342 237.665,466.483C238.671,477.271 221.86,463.954 208.428,466.101C189.454,469.133 183.298,484.143 184.882,476.534C188.29,460.163 206.098,456.445 208.555,455.931Z" style="fill:rgb(4,4,4);"/>
        <path d="M811.682,919.169C812.378,919.576 820.743,921.552 825.441,938.515C826.039,940.674 824.636,940.905 823.526,940.92C814.493,941.045 795.944,940.875 793.546,940.853C794.78,938.27 794.303,938.176 795.404,935.466C801.065,921.529 805.288,922.567 811.682,919.169Z" style="fill:rgb(192,192,191);"/>
        <path d="M294.552,668.446C296.433,670.983 295.082,673.307 293.987,678.599C293.338,681.735 293.368,704.007 274.453,693.584C274.737,692.639 275.539,693.442 275.822,692.5C275.869,692.343 275.733,692.371 275.382,690.494C274.825,687.511 278.24,670.26 278.585,668.517C279.738,662.697 291.493,671.521 293.5,669.903C293.966,669.527 294.086,668.822 294.552,668.446Z" style="fill:rgb(197,197,196);"/>
        <path d="M491.094,608.492C491.28,608.403 493.42,607.376 493.42,607.376C493.57,607.018 493.293,606.975 494.931,602.759C500.576,588.227 513.906,577.72 516.046,576.033C525.647,568.465 526.924,566.274 527.011,568.653C527.173,573.111 510.367,577.774 495.356,623.45C491.462,635.301 494.236,637.068 490.473,641.5C489.89,630.208 489.353,630.232 491.094,608.492Z" style="fill:rgb(197,197,196);"/>
        <path d="M258.79,600.375C257.882,601.373 257.262,600.76 255.807,603.652C249.92,615.352 241.989,623.737 241.529,625.52C240.888,628.002 239.777,627.435 239.421,627.824C231.887,625.181 231.934,625.201 231.284,624.969C228.275,623.898 230.71,620.251 233.869,615.759C244.531,600.6 251.357,590.624 258.79,600.375Z" style="fill:rgb(252,252,252);"/>
        <path d="M307.992,631.099C303.373,645.979 295.088,650.766 293.842,655.842C293.431,657.517 292.876,657.081 292.443,657.637C286.662,654.85 286.794,654.749 284.346,653.925C278.05,651.808 282.1,649.508 286.049,644.157C294.92,632.131 299.844,624.029 307.992,631.099Z" style="fill:rgb(252,252,251);"/>
        <path d="M811.682,919.169C805.288,922.567 801.065,921.529 795.404,935.466C794.303,938.176 794.78,938.27 793.546,940.853C788.299,940.873 780.813,941.991 781.628,938.53C788.182,910.685 808.992,918.198 811.682,919.169Z" style="fill:rgb(252,252,251);"/>
        <path d="M273.43,546.264C290.107,541.566 294.053,537.633 293.41,541.492C292.385,547.644 278.006,553.531 276.437,554.173C257.329,558.239 248.401,542.784 258.565,545.233C265.909,547.003 265.933,547.509 273.43,546.264Z" style="fill:rgb(4,4,4);"/>
        <path d="M493.501,940.895C492.622,940.841 486.574,942.785 488.393,936.469C495.662,911.237 508.077,909.092 512.503,908.447C520.013,907.352 511.319,910.682 506.556,916.549C494.552,931.333 500.587,940.177 493.501,940.895Z" style="fill:rgb(250,250,250);"/>
        <path d="M591.216,449.522C590.83,465.504 567.45,453.89 577.535,444.537C580.142,442.119 589.102,439.518 591.216,449.522Z" style="fill:rgb(3,3,3);"/>
        <path d="M294.552,668.446C294.086,668.822 293.966,669.527 293.5,669.903C291.493,671.521 279.738,662.697 278.585,668.517C278.24,670.26 274.825,687.511 275.382,690.494C275.733,692.371 275.869,692.343 275.822,692.5C275.539,693.442 274.737,692.639 274.453,693.584C273.592,692.818 273.108,692.816 271.74,690.38C269.384,686.184 276.183,663.434 276.532,662.515C277.919,658.862 293.237,667.688 294.552,668.446Z" style="fill:rgb(250,250,249);"/>
        <path d="M258.79,600.375C260.51,606.892 259.877,607.328 248.016,628.215C246.224,631.37 244.214,629.847 239.421,627.824C239.777,627.435 240.888,628.002 241.529,625.52C241.989,623.737 249.92,615.352 255.807,603.652C257.262,600.76 257.882,601.373 258.79,600.375Z" style="fill:rgb(200,200,200);"/>
        <path d="M307.992,631.099C308.723,631.936 315.91,633.56 300.143,659.268C297.97,662.811 297.132,659.947 292.443,657.637C292.876,657.081 293.431,657.517 293.842,655.842C295.088,650.766 303.373,645.979 307.992,631.099Z" style="fill:rgb(198,198,197);"/>
        <path d="M242.284,637.992C238.983,639.5 239.112,640.445 235.488,639.685C232.921,639.146 233.059,638.985 230.503,638.489C225.185,637.457 229.255,657.043 226.412,664.58C222.251,657.358 225.689,634.471 225.909,633.699C226.349,632.15 227.197,632.64 242.284,637.992Z" style="fill:rgb(249,249,248);"/>
        <path d="M258.5,646.873C252.777,646.662 254.296,644.283 254.264,638.496C254.22,630.665 258.401,637.136 270.601,644.339C278.077,648.752 268.51,646.956 258.5,646.873Z" style="fill:rgb(251,251,251);"/>
        <path d="M576.517,533.505C576.672,533.504 581.834,533.468 577.616,535.113C577.407,535.194 577.47,535.104 576.517,533.505Z" style="fill:rgb(167,169,168);"/>
        <path d="M702.509,438.259C702.176,438.321 702.517,439.161 702.184,439.222C701.563,439.336 701.076,437.715 701.449,437.646C701.851,437.572 702.107,438.333 702.509,438.259Z" style="fill:rgb(207,209,208);"/>
    </g>
</svg>
