<?xml version="1.0" standalone="no"?>
<!DOCTYPE svg PUBLIC "-//W3C//DTD SVG 20010904//EN"
 "http://www.w3.org/TR/2001/REC-SVG-20010904/DTD/svg10.dtd">
<svg version="1.0" xmlns="http://www.w3.org/2000/svg"
 width="1024.000000pt" height="1024.000000pt" viewBox="0 0 1024.000000 1024.000000"
 preserveAspectRatio="xMidYMid meet">

<g transform="translate(0.000000,1024.000000) scale(0.100000,-0.100000)"
fill="#000000" stroke="none">
<path d="M915 9686 c-162 -39 -287 -162 -330 -327 -13 -46 -15 -642 -15 -4225
0 -4118 0 -4173 20 -4235 44 -145 154 -256 301 -306 52 -17 215 -18 4229 -18
l4175 0 74 24 c138 45 245 152 293 290 l23 66 0 4185 0 4185 -23 67 c-55 160
-177 268 -336 297 -91 17 -8343 14 -8411 -3z m8317 -283 c26 -12 70 -44 97
-71 40 -40 54 -63 70 -118 l21 -69 -2 -3005 c-3 -2464 -5 -2997 -16 -2960 -46
163 -122 406 -164 525 -95 272 -203 545 -246 624 l-35 63 12 108 c13 121 4
211 -30 312 -26 78 -60 125 -122 171 -55 41 -102 51 -205 45 -120 -6 -266
-100 -369 -235 -46 -61 -123 -207 -163 -308 -42 -109 -72 -159 -134 -229 -190
-215 -440 -233 -598 -43 l-51 62 6 -100 c15 -263 147 -515 327 -626 82 -51
219 -64 317 -29 31 11 59 17 62 14 8 -8 -54 -248 -99 -384 -97 -291 -257 -576
-428 -762 -46 -50 -82 -98 -86 -115 -3 -15 -15 -84 -26 -153 -11 -69 -23 -132
-25 -141 -4 -12 -27 -19 -88 -27 -155 -20 -371 -96 -617 -215 -291 -141 -424
-181 -583 -175 -140 6 -202 30 -283 113 -81 83 -104 141 -104 268 0 128 -10
158 -68 201 -95 70 -196 187 -287 331 l-56 90 2 120 c2 66 2 237 0 380 -3 337
13 448 81 577 87 164 276 260 455 230 96 -16 201 -70 258 -134 87 -97 135
-218 191 -478 43 -206 78 -325 119 -417 96 -209 235 -328 449 -383 260 -66
496 31 598 246 55 117 47 213 -24 290 -28 30 -76 62 -162 105 -66 34 -150 81
-186 105 -140 92 -256 236 -346 430 -158 340 -183 382 -293 489 -98 96 -219
161 -371 202 -97 26 -298 23 -415 -6 -227 -55 -418 -199 -531 -397 -61 -108
-124 -327 -124 -430 0 -61 -16 -36 -29 44 -46 295 -35 663 26 855 70 223 193
393 340 469 127 66 160 73 346 73 92 0 167 2 167 5 0 25 -117 85 -195 100
-173 35 -354 -33 -520 -194 -30 -30 -52 -50 -49 -44 4 7 2 8 -5 4 -6 -4 -9
-11 -6 -16 3 -5 -8 -31 -24 -57 -16 -26 -48 -88 -71 -138 -110 -237 -129 -270
-200 -343 -92 -93 -159 -126 -255 -126 -80 0 -130 21 -181 76 -45 49 -66 86
-79 142 -10 42 -13 45 -14 21 -1 -17 5 -55 13 -84 l14 -54 -55 -116 c-142
-300 -249 -602 -369 -1038 l-9 -33 -115 64 c-63 35 -118 70 -121 77 -4 8 -20
45 -36 84 -54 135 -190 310 -288 372 l-44 28 77 36 c84 41 201 135 274 220
104 123 225 339 278 498 138 412 130 864 -26 1411 -70 245 -222 683 -281 808
-22 47 -59 44 -131 -11 -156 -119 -348 -221 -572 -305 -260 -97 -460 -139
-705 -149 l-150 -6 -39 131 c-43 145 -57 172 -89 172 -33 0 -184 -96 -243
-155 -28 -28 -53 -63 -56 -78 -11 -58 73 -566 138 -837 36 -148 109 -397 151
-509 96 -261 247 -521 400 -691 l46 -51 -42 -79 c-50 -94 -67 -170 -76 -343
l-7 -127 28 -41 c64 -92 235 -211 478 -330 213 -105 319 -128 433 -94 98 29
145 120 125 240 -13 81 -34 124 -90 186 -24 27 -42 52 -39 55 10 10 104 -47
162 -98 151 -135 265 -361 265 -526 0 -169 -63 -280 -212 -370 -52 -32 -170
-55 -241 -47 -50 6 -59 11 -72 35 -15 29 -86 117 -141 175 -65 69 -215 187
-329 260 -114 72 -250 180 -342 270 -89 88 -91 91 -98 149 -4 32 -5 85 -2 117
3 32 3 59 1 59 -3 0 -12 -16 -20 -35 -46 -111 25 -351 168 -564 116 -171 305
-329 537 -450 182 -94 189 -101 508 -538 75 -102 193 -226 274 -287 159 -120
336 -155 496 -100 41 14 85 23 97 20 35 -9 132 11 189 37 84 40 170 137 203
230 8 23 18 44 22 47 55 38 288 546 401 874 17 49 33 91 35 93 2 2 20 -42 41
-99 119 -324 262 -558 452 -737 92 -88 94 -91 100 -144 l5 -54 -43 -25 c-91
-53 -119 -108 -119 -226 l0 -79 -55 -12 c-133 -30 -215 -136 -215 -278 l0 -73
-37 0 c-56 0 -142 -44 -191 -98 -49 -52 -105 -161 -123 -237 -6 -27 -13 -56
-15 -63 -3 -10 -373 -12 -1866 -10 l-1863 3 -50 27 c-62 32 -129 103 -158 166
l-22 47 -3 4038 -2 4037 21 62 c11 34 36 80 54 103 36 43 115 93 169 106 17 4
1851 6 4076 6 l4045 -2 47 -22z m-5732 -2960 c126 -324 266 -800 304 -1033 62
-384 32 -722 -93 -1035 -113 -281 -307 -514 -496 -595 l-47 -20 6 27 c18 80
17 128 -3 159 -27 43 -82 84 -123 90 -70 12 -113 -10 -186 -96 -37 -44 -70
-80 -75 -80 -11 0 -187 114 -187 122 0 3 18 44 41 91 l41 85 46 -21 c59 -26
181 -34 254 -17 143 33 267 139 342 291 54 111 96 260 96 345 0 105 -31 110
-131 19 -90 -83 -139 -116 -250 -172 -120 -59 -217 -83 -340 -83 -110 0 -171
10 -275 46 -80 28 -104 24 -104 -16 0 -29 51 -112 102 -167 l30 -31 -63 -62
-63 -62 -38 43 c-109 126 -252 360 -324 528 -118 279 -256 816 -309 1204 -9
66 -14 121 -12 124 3 2 14 0 24 -5 76 -41 439 -55 657 -27 351 46 849 240
1076 419 25 19 48 35 52 35 3 1 25 -47 48 -106z m5135 -1695 c68 -48 172 -207
248 -378 72 -165 239 -606 307 -815 81 -252 101 -317 171 -592 l59 -233 0
-154 0 -155 -82 -60 c-97 -71 -251 -150 -358 -182 -53 -16 -102 -23 -165 -23
l-90 -1 -40 63 c-69 107 -115 190 -220 397 -84 164 -305 634 -305 649 0 2 -35
84 -79 182 -99 224 -231 548 -231 567 0 7 15 20 33 29 48 23 142 112 192 183
24 34 83 141 130 239 88 182 128 239 198 283 73 46 168 47 232 1z m-6063 -495
c35 -31 24 -88 -38 -198 -31 -55 -60 -104 -64 -108 -12 -14 -170 45 -170 63 0
21 100 164 152 218 45 46 87 55 120 25z m1853 -229 c20 -8 65 -18 100 -21 l63
-6 21 -56 c30 -82 100 -199 162 -273 50 -59 56 -71 68 -139 7 -41 29 -135 48
-209 52 -196 52 -183 -10 -360 -58 -166 -130 -351 -179 -465 -56 -129 -161
-345 -169 -345 -4 0 -13 16 -19 35 -12 36 -82 113 -128 140 -23 14 -31 31 -49
99 -53 207 -189 393 -385 527 -32 22 -58 42 -58 45 0 17 88 320 131 452 66
202 183 500 246 625 l24 48 48 -41 c27 -22 66 -47 86 -56z m-1348 -96 c41 -38
27 -103 -53 -237 l-35 -59 -89 41 c-49 23 -90 45 -90 49 0 9 116 166 148 201
33 34 85 37 119 5z m-655 -70 c25 -9 27 -14 33 -94 10 -113 2 -154 -32 -181
-43 -35 -141 -25 -163 17 -11 20 -14 260 -4 297 l6 21 66 -25 c37 -14 79 -30
94 -35z m230 -27 c48 -32 86 -60 84 -62 -3 -2 -47 -3 -100 -1 l-96 3 0 60 c0
41 4 59 13 59 6 0 51 -27 99 -59z m225 -237 c85 -41 83 -36 57 -166 -25 -125
-40 -148 -100 -148 -47 0 -100 23 -114 50 -8 14 -9 40 -5 69 7 51 45 211 52
224 7 11 46 1 110 -29z m5326 -659 c73 -173 319 -642 411 -785 l48 -73 -16
-36 c-55 -126 -63 -323 -22 -553 33 -187 28 -224 -67 -506 l-51 -152 -76 0
-76 0 -13 49 c-45 175 -161 281 -308 281 -28 0 -29 2 -41 78 -32 206 -158 335
-365 376 l-58 11 6 57 c10 86 -9 161 -53 206 -20 21 -48 45 -61 53 l-25 16 23
134 c12 74 28 144 34 155 7 12 50 66 96 120 179 212 335 502 421 786 17 56 34
109 36 117 4 12 68 -125 157 -334z m-4477 44 c176 -97 206 -119 309 -223 127
-129 186 -236 219 -398 71 -347 -125 -650 -403 -625 -136 13 -316 135 -449
303 -36 46 -105 139 -154 206 -85 117 -114 155 -166 220 l-24 28 64 0 c124 1
229 42 314 126 105 102 154 215 154 355 0 43 2 79 4 79 2 0 61 -32 132 -71z
m5694 -1125 c0 -421 -1 -446 -17 -439 -10 5 -54 19 -98 32 -153 46 -347 41
-497 -14 -39 -13 -72 -22 -75 -20 -2 3 -13 56 -24 119 -21 126 -25 300 -8 380
l12 52 18 -36 c28 -55 67 -78 131 -78 121 0 205 55 321 210 43 58 95 122 115
144 33 34 109 96 119 96 1 0 3 -201 3 -446z m-1993 -4 c47 -28 56 -53 51 -137
-3 -40 -7 -75 -10 -78 -2 -3 -45 -12 -94 -20 -193 -33 -322 -89 -469 -203
-109 -84 -248 -227 -300 -308 -42 -65 -110 -204 -120 -246 l-7 -28 -284 0
-284 0 -96 193 c-53 105 -126 241 -162 301 -92 154 -134 262 -140 358 l-5 77
36 36 c36 36 57 39 57 7 0 -26 47 -120 81 -164 17 -21 58 -57 91 -79 199 -136
461 -116 833 61 262 125 444 196 575 224 146 31 205 32 247 6z m264 -349 c106
-41 182 -135 203 -251 l6 -35 -47 47 c-27 26 -65 54 -85 63 -50 20 -124 19
-173 -4 -51 -23 -131 -111 -171 -187 -27 -53 -35 -61 -80 -76 l-49 -17 3 -47
c2 -26 10 -66 18 -88 31 -84 43 -76 -119 -76 l-145 0 15 57 c15 59 11 114 -10
131 -6 5 -37 13 -67 17 -97 13 -140 49 -140 118 0 93 100 197 273 282 159 79
232 96 387 92 99 -3 137 -8 181 -26z m-2216 -31 c7 -19 40 -82 74 -140 34 -58
76 -133 94 -168 31 -62 32 -64 13 -78 -12 -9 -44 -14 -83 -14 -54 0 -68 -4
-88 -25 -30 -29 -34 -97 -11 -163 8 -22 12 -43 9 -46 -11 -11 -333 -7 -333 4
0 21 29 66 65 100 69 65 78 113 45 245 -25 100 -25 168 -1 221 28 62 100 105
170 101 29 -2 36 -7 46 -37z m3789 -90 c44 -12 97 -30 118 -41 l40 -20 -3
-122 c-4 -109 -7 -128 -32 -179 -34 -69 -84 -121 -151 -156 l-51 -27 -287 -3
c-254 -3 -288 -2 -288 12 0 8 14 53 30 98 38 102 78 255 87 326 7 63 21 73
153 108 115 31 274 32 384 4z m-4172 -279 c-55 -55 -88 -115 -113 -206 l-16
-60 -41 -3 c-37 -3 -42 -1 -42 18 0 37 51 153 91 207 42 56 97 92 142 93 28 0
27 -1 -21 -49z m3043 -64 c44 -25 96 -102 113 -167 l10 -40 -225 0 -224 0 6
23 c10 33 62 140 79 160 39 49 174 62 241 24z"/>
<path d="M6260 8023 c-19 -2 -71 -10 -115 -19 -180 -35 -321 -156 -313 -267 3
-39 7 -44 48 -65 42 -22 54 -23 170 -19 193 8 276 40 466 182 77 58 174 108
244 126 l45 12 -50 13 c-128 34 -357 51 -495 37z"/>
<path d="M6803 7915 c-83 -23 -168 -70 -282 -158 -177 -135 -286 -172 -506
-172 -118 0 -146 3 -179 19 -92 46 -101 157 -20 263 16 21 20 33 12 33 -24 0
-248 -127 -323 -184 -100 -75 -204 -174 -277 -264 -44 -54 -75 -80 -117 -101
-138 -70 -232 -182 -300 -355 -69 -177 -86 -279 -86 -516 0 -225 10 -296 66
-465 71 -213 144 -310 303 -404 48 -28 118 -76 155 -105 205 -165 466 -298
659 -336 34 -7 65 -16 67 -20 8 -13 -16 -224 -26 -234 -15 -16 -10 -52 11 -79
11 -14 46 -36 78 -48 83 -33 310 -33 467 0 173 35 314 91 401 157 l36 28 -3
140 -4 140 85 32 c47 18 101 41 120 51 45 22 514 275 519 279 15 13 -19 9
-134 -17 -178 -39 -193 -44 -325 -106 -271 -128 -461 -197 -657 -239 -110 -24
-149 -27 -283 -26 -361 2 -678 120 -975 363 -38 31 -90 67 -115 79 -63 32
-124 75 -160 113 -61 65 -131 227 -172 401 -19 78 -22 120 -22 291 0 170 3
215 22 298 36 161 106 317 179 398 45 50 160 124 138 89 -17 -27 -25 -135 -15
-193 34 -183 134 -261 405 -313 131 -26 528 -25 675 0 195 34 360 87 455 147
79 50 181 156 268 277 102 142 186 228 268 272 60 33 70 35 159 35 83 0 102
-3 150 -27 30 -15 56 -26 57 -24 2 2 -19 37 -46 77 -82 123 -244 250 -448 351
-137 69 -189 79 -280 53z"/>
<path d="M7685 7164 c-6 -1 -26 -5 -46 -8 -72 -12 -183 -139 -238 -270 -44
-107 -62 -204 -68 -377 -5 -137 -3 -169 17 -260 29 -137 63 -218 124 -298 58
-77 68 -86 121 -111 177 -86 361 108 421 445 21 115 21 332 1 443 -42 225
-164 409 -286 432 -20 4 -41 5 -46 4z m222 -756 c-3 -7 -5 -2 -5 12 0 14 2 19
5 13 2 -7 2 -19 0 -25z m-10 -115 c-3 -10 -5 -2 -5 17 0 19 2 27 5 18 2 -10 2
-26 0 -35z"/>
<path d="M6360 6518 c-81 -41 -106 -147 -55 -233 22 -38 38 -50 98 -69 54 -17
129 37 148 108 17 63 3 122 -39 167 -49 50 -91 58 -152 27z"/>
<path d="M5323 6515 c-91 -39 -109 -204 -30 -271 79 -67 177 6 177 132 0 61
-22 110 -62 134 -39 23 -43 24 -85 5z"/>
<path d="M5788 5803 c-47 -29 -46 -97 2 -123 30 -16 85 -12 103 8 32 35 20 95
-24 117 -36 19 -48 18 -81 -2z"/>
<path d="M7892 5390 c-243 -49 -417 -159 -490 -310 -106 -218 -134 -564 -60
-715 26 -52 83 -111 133 -138 62 -33 172 -31 246 6 111 54 161 125 295 419 95
211 186 324 329 413 113 71 172 89 290 90 87 0 107 -3 155 -26 31 -14 73 -41
93 -59 53 -46 55 -32 5 25 -89 101 -276 217 -433 270 -146 49 -389 60 -563 25z"/>
<path d="M4965 5273 c-69 -10 -194 -45 -264 -76 -100 -43 -181 -97 -264 -177
-58 -56 -73 -78 -108 -159 -55 -128 -71 -204 -70 -334 1 -125 18 -178 75 -233
116 -112 315 -35 414 161 11 22 35 72 52 110 80 175 106 221 159 284 106 127
180 180 330 238 84 32 105 37 190 37 53 1 110 -2 126 -7 l30 -8 -25 21 c-59
48 -210 110 -333 136 -63 13 -239 17 -312 7z"/>
<path d="M5677 5063 c-11 -10 3 -22 18 -16 8 3 15 0 15 -6 0 -5 10 -16 23 -22
l22 -12 -20 22 c-24 27 -50 43 -58 34z"/>
<path d="M5619 3663 c-196 -100 -197 -433 0 -535 157 -82 324 33 339 232 13
182 -99 330 -250 330 -19 0 -59 -12 -89 -27z"/>
<path d="M2998 5884 c-155 -48 -299 -196 -229 -234 29 -15 32 -14 110 45 154
117 275 143 464 100 31 -7 57 -10 57 -6 0 16 -48 51 -105 78 -51 23 -75 28
-155 30 -63 2 -111 -3 -142 -13z"/>
<path d="M2005 5657 c-28 -13 -69 -45 -92 -71 -40 -45 -71 -111 -59 -123 3 -3
24 11 47 30 73 63 123 82 219 81 58 0 99 -6 130 -18 64 -25 98 -30 115 -16 62
51 -65 130 -220 137 -79 4 -96 1 -140 -20z"/>
<path d="M3052 5591 c-67 -32 -113 -71 -153 -134 -56 -86 -74 -197 -32 -197 8
0 52 20 96 44 119 64 259 113 363 127 113 15 114 15 114 37 0 29 -56 81 -119
110 -76 36 -205 42 -269 13z"/>
<path d="M2138 5397 c-86 -24 -161 -106 -174 -189 -9 -55 8 -60 105 -32 95 28
193 31 311 10 41 -8 80 -12 87 -9 33 13 -3 89 -73 155 -64 60 -173 88 -256 65z"/>
<path d="M2810 4803 c-81 -29 -103 -33 -150 -27 -106 12 -115 11 -112 -11 5
-28 28 -43 91 -62 68 -19 127 -12 193 24 48 26 108 84 108 103 0 15 -28 10
-130 -27z"/>
</g>
</svg>
